/Applications/krita.app/Contents/MacOS/ffmpeg -hide_banner -y -y -r 9 -start_number 0 -start_number_range 1 -i /Users/nikkikoole/Projects/love/vector-sketch/experiments/mipo-minipops/games/thief-vs-police/img/villgaers/frame%04d.png -i /Users/nikkikoole/Projects/love/vector-sketch/experiments/mipo-minipops/games/thief-vs-police/img/villgaers/KritaTempPalettegen_%06d.png -lavfi [0:v][1:v]paletteuse=dither=sierra2_4a:diff_mode=none -f gif -loop 0 -gifflags +transdiff /Users/nikkikoole/Projects/love/vector-sketch/experiments/mipo-minipops/games/thief-vs-police/img/villgaers/fixedalittle4.gif
=====================================================
Input #0, image2, from '/Users/nikkikoole/Projects/love/vector-sketch/experiments/mipo-minipops/games/thief-vs-police/img/villgaers/frame%04d.png':
  Duration: 00:00:00.28, start: 0.000000, bitrate: N/A
  Stream #0:0: Video: png, rgba(pc), 1135x847 [SAR 2835:2835 DAR 1135:847], 25 fps, 25 tbr, 25 tbn, 25 tbc
Input #1, image2, from '/Users/nikkikoole/Projects/love/vector-sketch/experiments/mipo-minipops/games/thief-vs-police/img/villgaers/KritaTempPalettegen_%06d.png':
  Duration: 00:00:00.04, start: 0.000000, bitrate: N/A
  Stream #1:0: Video: png, rgba(pc), 16x16 [SAR 1:1 DAR 1:1], 25 fps, 25 tbr, 25 tbn, 25 tbc
Stream mapping:
  Stream #0:0 (png) -> paletteuse:default
  Stream #1:0 (png) -> paletteuse:palette
  paletteuse -> Stream #0:0 (gif)
Press [q] to stop, [?] for help
Output #0, gif, to '/Users/nikkikoole/Projects/love/vector-sketch/experiments/mipo-minipops/games/thief-vs-police/img/villgaers/fixedalittle4.gif':
  Metadata:
    encoder         : Lavf58.76.100
  Stream #0:0: Video: gif, pal8(pc, gbr/unknown/unknown, progressive), 1135x847 [SAR 1:1 DAR 1135:847], q=2-31, 200 kb/s, 9 fps, 100 tbn (default)
    Metadata:
      encoder         : Lavc58.134.100 gif
frame=    1 fps=0.0 q=-0.0 size=       0kB time=00:00:00.01 bitrate=   0.0kbits/s speed=0.253x    frame=    7 fps=0.0 q=-0.0 Lsize=     719kB time=00:00:00.68 bitrate=8664.4kbits/s speed=2.46x    
video:719kB audio:0kB subtitle:0kB other streams:0kB global headers:0kB muxing overhead: 0.002716%
